<svg xmlns="http://www.w3.org/2000/svg" width="36.836" height="26.189" viewBox="0 0 36.836 26.189"><path d="M0-30.187a25.177,25.177,0,0,0-10.152,2.111,25.123,25.123,0,0,0-8.266,5.66l2.021,2.021a22.688,22.688,0,0,1,7.367-5.076A22.756,22.756,0,0,1,0-27.312a22.756,22.756,0,0,1,9.029,1.842A22.688,22.688,0,0,1,16.4-20.395l2.021-2.021a25.123,25.123,0,0,0-8.266-5.66A25.177,25.177,0,0,0,0-30.187ZM0-23a18.241,18.241,0,0,0-7.367,1.527,19.09,19.09,0,0,0-5.975,4.133l2.021,2.021a16.053,16.053,0,0,1,5.076-3.5A15.354,15.354,0,0,1,0-20.125a15.354,15.354,0,0,1,6.244,1.3,16.053,16.053,0,0,1,5.076,3.5l2.021-2.021a19.09,19.09,0,0,0-5.975-4.133A18.241,18.241,0,0,0,0-23Zm0,7.188a11.042,11.042,0,0,0-4.515.943,11.9,11.9,0,0,0-3.751,2.605l2.021,2.021a8.931,8.931,0,0,1,2.83-1.977A8.313,8.313,0,0,1,0-12.937a8.313,8.313,0,0,1,3.414.719,8.931,8.931,0,0,1,2.83,1.977l2.021-2.021a11.9,11.9,0,0,0-3.751-2.605A11.042,11.042,0,0,0,0-15.812ZM0-8.625a4.051,4.051,0,0,0-1.752.382A4.7,4.7,0,0,0-3.189-7.187L0-4,3.189-7.187A4.7,4.7,0,0,0,1.752-8.243,4.051,4.051,0,0,0,0-8.625Z" transform="translate(18.418 30.188)"></path></svg>